<?xml version="1.0" encoding="utf-8"?>
<!-- Generator: Adobe Illustrator 19.0.0, SVG Export Plug-In . SVG Version: 6.00 Build 0)  -->
<svg version="1.1" id="Layer_3" xmlns="http://www.w3.org/2000/svg" xmlns:xlink="http://www.w3.org/1999/xlink" x="0px" y="0px"
	 viewBox="-293 384 25 25" enable-background="new -293 384 25 25" xml:space="preserve">
<g>
	<g>
		<path fill="none" d="M-273.5,393.3c-0.3,0-0.5,0.2-0.5,0.5c0,0.3,0.2,0.5,0.5,0.5s0.5-0.2,0.5-0.5c0,0,0,0,0,0
			C-273.1,393.5-273.3,393.3-273.5,393.3z"/>
	</g>
	<g>
		<g>
			<path fill="#737F92" d="M-271.4,394.8L-271.4,394.8C-271.4,394.8-271.4,394.8-271.4,394.8C-271.4,394.8-271.4,394.8-271.4,394.8z
				"/>
			<g>
				<path fill="none" d="M-279.6,388.5C-279.6,388.5-279.6,388.5-279.6,388.5c-1.1-0.2-2-0.3-3-0.1c-4.9,1.3-4.9,3.9-5,6.9
					c-0.2,2-0.4,3.6-1.2,5.4c0,0,0.1,0.1,0.1,0.1c0,0,0,0,0,0c0.1,0.3,0.6,0.9,1.3,1.6c0,0,0,0,0,0c0.1,0.1,0.2,0.2,0.3,0.3
					c0.7,0.6,1.5,1.2,2.4,1.6c0.1,0.1,0.3,0.1,0.4,0.2c0.1,0,0.2,0.1,0.3,0.1c0.2,0.1,0.4,0.2,0.6,0.3c0,0,0.1,0,0.1,0
					c0.2,0.1,0.5,0.2,0.7,0.2c0,0,0.1,0,0.1,0c0.2,0.1,0.5,0.1,0.7,0.2c0.1,0,0.2,0,0.3,0.1c0.2,0,0.3,0.1,0.5,0.1
					c1,0.1,2.1,0.1,3.1-0.1c0,0,0.1,0,0.1,0c0,0,0,0,0,0c0,0,0,0,0.1,0c-0.5-3.2,2.4-6.4,4-8.1c0.6-0.6,1.8-1.6,2.4-2.5
					c0,0,0,0-0.1,0c1.1-1.7,0.8-3.4-2.7-4.4c-0.8-0.2-1.6-0.6-2.5-0.9c0,0,0,0,0-0.1"/>
				<path fill="#77838F" d="M-277.2,388.7c-0.5-0.5-1.5-0.5-2.4-0.3c1.3-0.3,2.5-0.2,3,1C-276.6,389.3-276.8,389-277.2,388.7z"/>
				<path fill="#737F92" d="M-280.5,384c-6.9,0-12.5,5.6-12.5,12.5c0,6.9,5.6,12.5,12.5,12.5c6.9,0,12.5-5.6,12.5-12.5
					C-268,389.6-273.6,384-280.5,384z M-273.7,397.3c-1.6,1.6-4.4,4.8-4,8.1c0,0,0,0-0.1,0c0,0,0,0,0,0c0,0-0.1,0-0.1,0
					c-1,0.2-2.1,0.3-3.1,0.1c-0.2,0-0.3-0.1-0.5-0.1c-0.1,0-0.2,0-0.3-0.1c-0.2,0-0.5-0.1-0.7-0.2c0,0-0.1,0-0.1,0
					c-0.2-0.1-0.5-0.1-0.7-0.2c0,0-0.1,0-0.1,0c-0.2-0.1-0.4-0.2-0.6-0.3c-0.1,0-0.2-0.1-0.3-0.1c-0.1-0.1-0.3-0.1-0.4-0.2
					c-0.9-0.5-1.7-1-2.4-1.6c-0.1-0.1-0.2-0.2-0.3-0.3c0,0,0,0,0,0c-0.7-0.7-1.2-1.3-1.3-1.6c0,0,0,0,0,0c0,0-0.1-0.1-0.1-0.1
					c0.8-1.8,1-3.5,1.2-5.4c0.1-3,0.1-5.6,5-6.9c0.9-0.2,1.9-0.1,2.9,0.1c0,0,0,0,0.1,0c0.9-0.2,1.9-0.2,2.4,0.3
					c0.3,0.3,0.5,0.5,0.6,0.7c0,0,0,0,0,0.1c0.8,0.3,1.7,0.7,2.5,0.9c3.5,1,3.8,2.7,2.7,4.4c0,0,0,0,0,0
					C-272,395.7-273.1,396.6-273.7,397.3z"/>
			</g>
		</g>
		<polygon fill="#77838F" points="-271.3,394.7 -271.3,394.7 -271.3,394.7 		"/>
	</g>
	<g>
		<path fill="none" d="M-273.5,394.3c0.3,0,0.5-0.2,0.5-0.5c0,0,0,0,0,0c0-0.3-0.2-0.5-0.5-0.5c-0.3,0-0.5,0.2-0.5,0.5
			C-274,394.1-273.8,394.3-273.5,394.3z"/>
		<path fill="none" d="M-281.2,389.5C-281.2,389.5-281.2,389.5-281.2,389.5c-1.2,0-2.1,1-2.1,2.1c0,1.2,1,2.1,2.1,2.1s2.1-1,2.1-2.1
			C-279.1,390.5-280,389.5-281.2,389.5z"/>
	</g>
</g>
<path fill="#737F92" d="M-277.7,396.9c1.1,0.1,3.6-0.6,4.3-0.9c0.7-0.3,1.7-0.9,2.3-1.4l-0.3,0.4c-0.6,0.5-1.2,0.8-1.9,1.2
	c-0.7,0.3-1.4,0.6-2.1,0.8c-0.7,0.2-1.5,0.3-2.3,0.3c-0.8-0.1-1.6-0.3-2.1-1l0,0C-279.2,396.7-278.4,396.9-277.7,396.9L-277.7,396.9
	z"/>
<circle fill="#77838F" cx="-273.5" cy="393.8" r="0.5"/>
<path fill="#77838F" d="M-281.2,389.5c-1.2,0-2.1,1-2.1,2.1c0,1.2,1,2.1,2.1,2.1c1.2,0,2.1-1,2.1-2.1
	C-279.1,390.5-280,389.5-281.2,389.5z M-281.2,393.2c-0.8,0-1.5-0.7-1.5-1.6c0-0.9,0.7-1.6,1.5-1.6c0.8,0,1.5,0.7,1.5,1.6
	C-279.7,392.5-280.4,393.2-281.2,393.2z"/>
</svg>
