<?xml version="1.0" encoding="utf-8"?>
<!-- Generator: Adobe Illustrator 19.0.0, SVG Export Plug-In . SVG Version: 6.00 Build 0)  -->
<svg version="1.1" xmlns="http://www.w3.org/2000/svg" xmlns:xlink="http://www.w3.org/1999/xlink" x="0px" y="0px"
	 viewBox="-293 384 25 25" style="enable-background:new -293 384 25 25;" xml:space="preserve">
<style type="text/css">
	.st0{fill:#737F92;}
</style>
<g id="Layer_1">
</g>
<g id="Layer_2">
</g>
<g id="Layer_3">
	<path class="st0" d="M-280.5,384c-6.9,0-12.5,5.6-12.5,12.5c0,6.9,5.6,12.5,12.5,12.5c6.9,0,12.5-5.6,12.5-12.5
		C-268,389.6-273.6,384-280.5,384z M-276.6,388.1c0.3-0.4,0.8-0.6,1.3-0.6c0.5,0,0.8,0.3,1,0.8c0.2,0.4,0.1,0.8,0.1,1.3
		c-0.1,0.5-0.2,1.1-0.1,1.6c0,0.4,0.1,0.8,0.3,1.3c0,0.1,0.1,0.2,0,0.3c-0.1,0.1-0.2,0-0.3-0.1c-0.4-0.5-0.9-0.5-1.5-0.4
		c-0.2,0-0.4,0.1-0.5-0.2c-0.2-0.5-0.7-0.5-1.2-0.5c-0.2,0-0.6,0.1-0.6-0.2c0-0.3,0.3-0.3,0.5-0.4c0.5-0.2,1.1-0.3,1.6-0.7
		c0.4-0.2,0.8-0.5,1-0.9c0.2-0.4,0.2-0.7-0.1-1.1c-0.3-0.3-0.7-0.4-0.9,0.1c-0.1,0.2-0.2,0.5-0.5,0.3
		C-276.8,388.6-276.8,388.3-276.6,388.1z M-283.2,404.3c-2.1,0-3.9-0.8-5.5-1.9c-0.3-0.2-0.5-0.4-0.6-0.8c-0.1-0.4-0.3-0.8,0-1.2
		c0.3-0.4,0.8-0.3,1.2-0.2c2,0.8,3.5,0,5-1.2c0.3-0.2,0.5-0.6,0.6-1c0.6-1.8,1.5-3.5,1.9-5.3c0.5-2.1,2.3-2.5,4.3-2.6
		c-0.5,0.5-1.3,0.6-1.9,0.8c-0.3,0.1-0.7,0.1-0.6,0.5c0.1,0.4,0.5,0.3,0.8,0.3c0.6-0.1,1.1,0,1.4,0.6c0.1,0.3,0.4,0.3,0.7,0.2
		c0.7-0.2,1.3-0.2,1.8,0.5c0.1,0.1,0.2,0.2,0.3,0.1c0.1-0.1,0-0.3,0-0.4c-0.2-0.5-0.4-1-0.4-1.5c0.8,0.6,1.2,1.3,1.3,2.3
		C-272.5,399.2-277.4,404.4-283.2,404.3z"/>
</g>
</svg>
