<?xml version="1.0" encoding="utf-8"?>
<!-- Generator: Adobe Illustrator 19.0.0, SVG Export Plug-In . SVG Version: 6.00 Build 0)  -->
<svg version="1.1" xmlns="http://www.w3.org/2000/svg" xmlns:xlink="http://www.w3.org/1999/xlink" x="0px" y="0px"
	 viewBox="-293 384 25 25" style="enable-background:new -293 384 25 25;" xml:space="preserve">
<style type="text/css">
	.st0{fill:#737F92;}
</style>
<g id="Layer_1">
</g>
<g id="Layer_2">
	<g>
		<path class="st0" d="M-282.8,389.5c-2.7,0-4.9,2.2-5,4.9c0,2.7,2.2,4.9,4.9,4.9c2.7,0,4.9-2.2,4.9-4.9
			C-277.9,391.8-280.1,389.5-282.8,389.5z M-284.3,391.6c-0.1,0.1-0.2,0.2-0.3,0.3c-0.9,0.8-1.4,1.7-1.2,2.9c0,0.2-0.2,0.4-0.3,0.5
			c-0.1-0.1-0.3-0.2-0.4-0.4c-0.4-1.4,0.6-3.1,1.8-3.9c0,0,0.1,0,0.2-0.1c0.1,0.1,0.2,0.1,0.2,0.2
			C-284.3,391.3-284.2,391.5-284.3,391.6z"/>
		<path class="st0" d="M-280.5,384c-6.9,0-12.5,5.6-12.5,12.5c0,6.9,5.6,12.5,12.5,12.5c6.9,0,12.5-5.6,12.5-12.5
			C-268,389.6-273.6,384-280.5,384z M-282.9,401.2c-3.7,0-6.7-3.1-6.7-6.8c0-3.7,3.1-6.8,6.8-6.8c3.7,0,6.8,3.1,6.8,6.8
			C-276.1,398.2-279.1,401.2-282.9,401.2z M-273.1,404.1c-0.6,0.6-1,0.7-1.5,0.2c-1.2-1.3-2.4-2.5-3.6-3.8c0.4-0.4,0.9-0.9,1.5-1.4
			c0,0,0.1,0,0.2,0.1c1.2,1.2,2.4,2.3,3.6,3.5C-272.5,403.1-272.5,403.6-273.1,404.1z"/>
	</g>
</g>
</svg>
