<?xml version="1.0" encoding="utf-8"?>
<!-- Generator: Adobe Illustrator 19.0.0, SVG Export Plug-In . SVG Version: 6.00 Build 0)  -->
<svg version="1.1" id="Layer_2" xmlns="http://www.w3.org/2000/svg" xmlns:xlink="http://www.w3.org/1999/xlink" x="0px" y="0px"
	 viewBox="-293 384 25 25" style="enable-background:new -293 384 25 25;" xml:space="preserve">
<style type="text/css">
	.st0{fill:#737F92;}
</style>
<g>
	<path class="st0" d="M-280.5,384c-6.9,0-12.4,5.6-12.4,12.5c0,5.5,3.6,10.2,8.5,11.9c0.6,0.1,0.9-0.3,0.9-0.6c0-0.3,0-1.3,0-2.3
		c-3.5,0.8-4.2-1.5-4.2-1.5c-0.6-1.4-1.4-1.8-1.4-1.8c-1.1-0.8,0.1-0.8,0.1-0.8c1.2,0.1,1.9,1.3,1.9,1.3c1.1,1.9,2.9,1.4,3.6,1
		c0.1-0.8,0.4-1.4,0.8-1.7c-2.8-0.3-5.7-1.4-5.7-6.2c0-1.4,0.5-2.5,1.3-3.4c-0.1-0.3-0.6-1.6,0.1-3.3c0,0,1-0.3,3.4,1.3
		c1-0.3,2.1-0.4,3.1-0.4c1.1,0,2.1,0.1,3.1,0.4c2.4-1.6,3.4-1.3,3.4-1.3c0.7,1.7,0.3,3,0.1,3.3c0.8,0.9,1.3,2,1.3,3.4
		c0,4.8-2.9,5.9-5.7,6.2c0.4,0.4,0.8,1.2,0.8,2.3c0,1.7,0,3,0,3.4c0,0.3,0.2,0.7,0.9,0.6c4.9-1.7,8.5-6.3,8.5-11.9
		C-268.1,389.6-273.6,384-280.5,384z"/>
	<path class="st0" d="M-288.2,402c0,0.1-0.1,0.1-0.2,0c-0.1,0-0.1-0.1-0.1-0.2c0-0.1,0.1-0.1,0.2,0
		C-288.2,401.8-288.2,401.9-288.2,402L-288.2,402z M-287.7,402.5c-0.1,0.1-0.2,0-0.3-0.1c-0.1-0.1-0.1-0.2,0-0.3
		c0.1-0.1,0.2,0,0.3,0.1C-287.7,402.4-287.7,402.5-287.7,402.5L-287.7,402.5z M-287.2,403.3c-0.1,0.1-0.2,0-0.3-0.1
		c-0.1-0.1-0.1-0.2,0-0.3c0.1-0.1,0.2,0,0.3,0.1C-287.2,403.1-287.2,403.2-287.2,403.3L-287.2,403.3z M-286.6,404
		c-0.1,0.1-0.2,0.1-0.3,0c-0.1-0.1-0.1-0.2-0.1-0.3c0.1-0.1,0.2-0.1,0.3,0C-286.5,403.7-286.5,403.9-286.6,404L-286.6,404z
		 M-285.6,404.4c0,0.1-0.2,0.1-0.3,0.1c-0.1,0-0.2-0.2-0.2-0.3c0-0.1,0.2-0.1,0.3-0.1C-285.7,404.1-285.6,404.3-285.6,404.4
		L-285.6,404.4z M-284.6,404.4c0,0.1-0.1,0.2-0.3,0.2c-0.1,0-0.3-0.1-0.3-0.2c0-0.1,0.1-0.2,0.3-0.2
		C-284.7,404.2-284.6,404.3-284.6,404.4z M-283.7,404.3c0,0.1-0.1,0.2-0.2,0.2c-0.1,0-0.3,0-0.3-0.1c0-0.1,0.1-0.2,0.2-0.2
		C-283.8,404.1-283.7,404.2-283.7,404.3L-283.7,404.3z"/>
</g>
</svg>
