<?xml version="1.0" encoding="utf-8"?>
<!-- Generator: Adobe Illustrator 19.0.0, SVG Export Plug-In . SVG Version: 6.00 Build 0)  -->
<svg version="1.1" id="Layer_1" xmlns="http://www.w3.org/2000/svg" xmlns:xlink="http://www.w3.org/1999/xlink" x="0px" y="0px"
	 viewBox="-293 384 25 25" enable-background="new -293 384 25 25" xml:space="preserve">
<g>
	<path fill="#737F92" d="M-280.7,393.4c-0.1,0-0.2,0-0.3,0.1c-0.1,0.1-0.1,0.4-0.1,0.8v4.1c0,0.5,0,0.8,0.1,0.9
		c0,0.1,0.1,0.2,0.3,0.2c0.2,0,0.3-0.1,0.3-0.2c0-0.1,0.1-0.5,0.1-1v-4c0-0.4,0-0.7-0.1-0.8C-280.4,393.5-280.5,393.4-280.7,393.4z"
		/>
	<path fill="#737F92" d="M-286.5,393.6v2.2c0.1,0,0.1,0,0.2,0c0.2,0,0.4-0.1,0.4-0.2c0.1-0.1,0.1-0.3,0.1-0.6v-0.7
		c0-0.3,0-0.5-0.1-0.6S-286.2,393.6-286.5,393.6z"/>
	<path fill="#737F92" d="M-280.5,384c-6.9,0-12.5,5.6-12.5,12.5c0,6.9,5.6,12.5,12.5,12.5c6.9,0,12.5-5.6,12.5-12.5
		C-268,389.6-273.6,384-280.5,384z M-283.9,395.3c0,0.6-0.1,1-0.2,1.2s-0.3,0.4-0.6,0.6c-0.3,0.1-0.7,0.2-1.2,0.2h-0.6v3.5h-2.3
		v-8.7h2.3c0.6,0,1.1,0,1.4,0.1c0.3,0.1,0.6,0.2,0.7,0.4c0.2,0.2,0.3,0.4,0.3,0.7c0.1,0.3,0.1,0.7,0.1,1.2V395.3z M-278.1,397.2
		c0,0.9,0,1.5-0.1,1.9c0,0.4-0.2,0.7-0.4,1c-0.2,0.3-0.5,0.5-0.9,0.7c-0.4,0.2-0.8,0.2-1.3,0.2c-0.5,0-0.9-0.1-1.3-0.2
		c-0.4-0.2-0.7-0.4-0.9-0.7s-0.4-0.6-0.4-1c0-0.4-0.1-1-0.1-1.9v-1.5c0-0.9,0-1.5,0.1-1.9c0-0.4,0.2-0.7,0.4-1
		c0.2-0.3,0.5-0.5,0.9-0.7s0.8-0.2,1.3-0.2c0.5,0,0.9,0.1,1.3,0.2c0.4,0.2,0.7,0.4,0.9,0.7c0.2,0.3,0.4,0.6,0.4,1s0.1,1,0.1,1.9
		V397.2z M-272.5,400c-0.1,0.3-0.4,0.5-0.8,0.7c-0.4,0.2-0.9,0.3-1.5,0.3c-0.6,0-1.1-0.1-1.5-0.3c-0.4-0.2-0.7-0.5-0.8-0.9
		c-0.1-0.4-0.2-0.9-0.2-1.5v-0.6h2.1v1.1c0,0.3,0,0.5,0.1,0.6c0.1,0.1,0.2,0.1,0.3,0.1s0.3-0.1,0.3-0.2c0.1-0.1,0.1-0.3,0.1-0.5
		c0-0.5-0.1-0.8-0.2-1c-0.1-0.2-0.5-0.4-1.1-0.8c-0.6-0.4-0.9-0.6-1.1-0.8s-0.3-0.4-0.5-0.7s-0.2-0.7-0.2-1.1c0-0.7,0.1-1.2,0.3-1.5
		s0.4-0.5,0.8-0.7c0.4-0.2,0.8-0.3,1.4-0.3c0.6,0,1.1,0.1,1.5,0.3c0.4,0.2,0.7,0.4,0.8,0.7c0.1,0.3,0.2,0.8,0.2,1.5v0.3h-2.1v-0.6
		c0-0.3,0-0.5-0.1-0.6c-0.1-0.1-0.1-0.1-0.3-0.1c-0.1,0-0.2,0.1-0.3,0.2c-0.1,0.1-0.1,0.3-0.1,0.5c0,0.3,0,0.5,0.1,0.7
		c0.1,0.1,0.3,0.3,0.6,0.5c1,0.6,1.6,1.1,1.9,1.5s0.4,1,0.4,1.9C-272.2,399.2-272.3,399.7-272.5,400z"/>
</g>
</svg>
