<?xml version="1.0" encoding="utf-8"?>
<!-- Generator: Adobe Illustrator 19.0.0, SVG Export Plug-In . SVG Version: 6.00 Build 0)  -->
<svg version="1.1" xmlns="http://www.w3.org/2000/svg" xmlns:xlink="http://www.w3.org/1999/xlink" x="0px" y="0px"
	 viewBox="-293 384 25 25" style="enable-background:new -293 384 25 25;" xml:space="preserve">
<style type="text/css">
	.st0{fill:#737F92;}
</style>
<g id="Layer_1">
</g>
<g id="Layer_2">
	<g>
		<path class="st0" d="M-280,387.2l0,3.7l4.1,0c-0.4-1-1-1.8-1.6-2.4C-278.3,387.8-279.2,387.4-280,387.2z"/>
		<path class="st0" d="M-281,391l0-3.8c-1.7,0.2-3.2,1.7-4.1,3.8L-281,391z"/>
		<path class="st0" d="M-286.5,401.2c-0.4-1.3-0.7-2.7-0.7-4.2l-2.5,0c0.1,1.5,0.5,3,1.2,4.2L-286.5,401.2z"/>
		<path class="st0" d="M-281.1,395.9l0-3.9l-4.5,0c-0.4,1.2-0.6,2.5-0.7,3.9L-281.1,395.9z"/>
		<path class="st0" d="M-281.1,396.9l-5.1,0c0,1.5,0.3,3,0.7,4.2l4.4,0L-281.1,396.9z"/>
		<path class="st0" d="M-287.2,395.9c0.1-1.4,0.3-2.7,0.7-3.9l-2.1,0c-0.6,1.2-1,2.5-1.1,3.9L-287.2,395.9z"/>
		<path class="st0" d="M-273.9,396.9c0,1.5-0.3,2.9-0.7,4.2l2.2,0c0.7-1.3,1.1-2.7,1.2-4.2L-273.9,396.9z"/>
		<path class="st0" d="M-272.4,391.9l-2.2,0c0.4,1.2,0.6,2.5,0.7,3.9l2.7,0C-271.3,394.5-271.7,393.1-272.4,391.9z"/>
		<path class="st0" d="M-280.1,395.9l5.2,0c-0.1-1.4-0.3-2.7-0.7-3.9l-4.5,0L-280.1,395.9z"/>
		<path class="st0" d="M-286.2,391c0.5-1.2,1.1-2.2,1.8-2.9c-1.4,0.7-2.7,1.7-3.6,3L-286.2,391z"/>
		<path class="st0" d="M-274.9,402.1c-0.5,1.2-1.1,2.2-1.9,3c1.5-0.6,2.8-1.7,3.8-3L-274.9,402.1z"/>
		<polygon class="st0" points="-270.8,396.5 -270.7,396.5 -270.8,396.5 		"/>
		<path class="st0" d="M-280.5,384c-6.9,0-12.5,5.6-12.5,12.5c0,6.9,5.6,12.5,12.5,12.5c6.9,0,12.5-5.6,12.5-12.5
			C-268,389.6-273.6,384-280.5,384z M-280.4,406.8C-280.4,406.8-280.4,406.8-280.4,406.8C-280.5,406.8-280.5,406.8-280.4,406.8
			C-280.5,406.8-280.5,406.8-280.4,406.8c-0.1,0-0.1,0-0.1,0c0,0,0,0-0.1,0c-2.7,0-5.2-1.1-7.1-3c-1.9-1.9-3-4.5-3-7.3
			c0-5.7,4.5-10.3,10.1-10.4c0,0,0.1,0,0.1,0c0,0,0,0,0,0c0,0,0,0,0,0c0,0,0,0,0,0c2.7,0,5.3,1,7.3,3c1.9,1.9,3,4.5,3,7.3v0.1
			C-270.2,402.2-274.7,406.8-280.4,406.8z"/>
		<path class="st0" d="M-281.1,405.8l0-3.6l-3.9,0c0.4,0.9,1,1.7,1.6,2.3C-282.8,405.2-282,405.6-281.1,405.8z"/>
		<path class="st0" d="M-286.1,402.2l-1.7,0c0.3,0.3,0.5,0.7,0.9,1c0.8,0.8,1.7,1.4,2.6,1.8C-285.1,404.2-285.7,403.2-286.1,402.2z"
			/>
		<path class="st0" d="M-280.1,402.1l0,3.7c1.7-0.2,3.2-1.6,4.2-3.7L-280.1,402.1z"/>
		<path class="st0" d="M-280.1,396.9l0,4.2l4.5,0c0.4-1.3,0.7-2.7,0.7-4.2L-280.1,396.9z"/>
		<path class="st0" d="M-274.9,390.9l1.9,0c-0.3-0.4-0.6-0.7-0.9-1.1c-0.8-0.8-1.8-1.5-2.9-1.9C-276,388.7-275.4,389.8-274.9,390.9z
			"/>
	</g>
</g>
</svg>
