<?xml version="1.0" encoding="utf-8"?>
<!-- Generator: Adobe Illustrator 19.0.0, SVG Export Plug-In . SVG Version: 6.00 Build 0)  -->
<svg version="1.1" xmlns="http://www.w3.org/2000/svg" xmlns:xlink="http://www.w3.org/1999/xlink" x="0px" y="0px"
	 viewBox="-293 384 25 25" style="enable-background:new -293 384 25 25;" xml:space="preserve">
<style type="text/css">
	.st0{fill:#737F92;}
</style>
<g id="Layer_1">
</g>
<g id="Layer_2">
	<path class="st0" d="M-280.5,384c-6.9,0-12.5,5.6-12.5,12.5c0,6.9,5.6,12.5,12.5,12.5c6.9,0,12.5-5.6,12.5-12.5
		C-268,389.6-273.6,384-280.5,384z M-276.1,403.1c0,0-0.6-0.7-1.1-1.3c2.1-0.6,2.9-1.9,2.9-1.9c-0.7,0.4-1.3,0.7-1.8,0.9
		c-0.8,0.3-1.6,0.5-2.3,0.7c-1.5,0.3-2.9,0.2-4.1,0c-0.9-0.2-1.7-0.4-2.3-0.7c-0.4-0.1-0.8-0.3-1.2-0.5c0,0-0.1,0-0.1-0.1
		c0,0,0,0-0.1,0c-0.3-0.2-0.4-0.3-0.4-0.3s0.8,1.3,2.8,1.9c-0.5,0.6-1.1,1.3-1.1,1.3c-3.5-0.1-4.9-2.4-4.9-2.4
		c0-5.1,2.3-9.2,2.3-9.2c2.3-1.7,4.5-1.7,4.5-1.7l0.2,0.2c-2.9,0.8-4.2,2.1-4.2,2.1s0.4-0.2,0.9-0.4c1.7-0.8,3.1-0.9,3.6-1
		c0.1,0,0.2,0,0.3,0c1-0.1,2.1-0.2,3.2,0c1.5,0.2,3.1,0.6,4.8,1.5c0,0-1.3-1.2-4-2l0.2-0.3c0,0,2.2,0,4.5,1.7c0,0,2.3,4.1,2.3,9.2
		C-271.2,400.7-272.5,403-276.1,403.1z"/>
</g>
<g id="Layer_3">
	<path class="st0" d="M-277.7,393.7c-0.9,0-1.6,0.8-1.6,1.8c0,1,0.7,1.8,1.6,1.8c0.9,0,1.6-0.8,1.6-1.8
		C-276.1,394.4-276.8,393.7-277.7,393.7z M-283.5,393.7c-0.9,0-1.6,0.8-1.6,1.8c0,1,0.7,1.8,1.6,1.8c0.9,0,1.6-0.8,1.6-1.8
		C-281.9,394.4-282.6,393.7-283.5,393.7z"/>
</g>
</svg>
